<?xml version="1.0" standalone="no"?>
<!DOCTYPE svg PUBLIC "-//W3C//DTD SVG 20010904//EN"
 "http://www.w3.org/TR/2001/REC-SVG-20010904/DTD/svg10.dtd">
<svg version="1.0" xmlns="http://www.w3.org/2000/svg"
 width="1280.000000pt" height="974.000000pt" viewBox="0 0 1280.000000 974.000000"
 preserveAspectRatio="xMidYMid meet">
<metadata>
Created by potrace 1.15, written by Peter Selinger 2001-2017
</metadata>
<g transform="translate(0.000000,974.000000) scale(0.100000,-0.100000)"
fill="#000000" stroke="none">
<path d="M3015 9726 c-100 -32 -176 -100 -227 -204 l-33 -67 0 -515 0 -515 32
-67 c40 -85 100 -150 172 -185 l56 -28 310 -5 310 -5 0 -1280 0 -1280 -217 -3
-218 -2 0 324 c0 203 -4 345 -11 378 -33 156 -162 284 -317 317 -34 7 -199 11
-455 11 -438 0 -470 -3 -569 -57 -98 -53 -175 -164 -198 -283 -6 -34 -10 -797
-10 -2192 0 -2404 -6 -2225 74 -2341 45 -66 136 -137 203 -158 21 -6 100 -14
176 -16 l138 -5 -7 -41 c-4 -23 -7 -100 -6 -172 2 -349 140 -676 391 -926 201
-200 443 -327 736 -386 124 -24 376 -24 500 0 294 60 535 185 736 386 229 228
360 507 390 829 26 285 -57 606 -222 850 -16 24 -29 45 -29 48 0 2 428 4 950
4 523 0 950 -2 950 -5 0 -3 -13 -29 -29 -58 -44 -77 -105 -239 -132 -347 -21
-83 -24 -119 -24 -290 0 -172 3 -206 24 -290 151 -605 628 -1000 1276 -1055
155 -14 413 29 581 95 359 142 629 403 768 743 45 107 83 249 93 342 l8 70
342 3 c319 2 342 1 346 -15 3 -10 8 -49 12 -87 18 -183 132 -458 259 -627 320
-424 897 -630 1421 -507 521 121 902 492 1031 1003 32 123 44 370 24 493 -44
282 -184 565 -369 747 l-51 49 0 2063 0 2063 115 0 c62 0 138 5 167 11 123 26
218 101 275 217 l38 76 0 500 0 501 -32 67 c-57 121 -157 201 -286 227 -37 8
-780 11 -2507 9 -2325 -3 -2457 -4 -2500 -21 -114 -45 -201 -133 -243 -244
-20 -55 -22 -77 -25 -482 -4 -474 2 -549 47 -639 75 -149 209 -222 408 -222
l93 0 0 -480 0 -480 -1512 2 -1513 3 0 1280 0 1280 275 5 275 5 53 30 c67 36
137 112 171 185 l26 55 0 520 0 520 -31 65 c-44 92 -93 143 -172 182 l-67 33
-1100 2 c-868 1 -1108 -1 -1140 -11z"/>
<path d="M345 8076 c-83 -20 -147 -56 -210 -120 -178 -178 -178 -454 -1 -632
120 -119 276 -160 438 -116 329 92 436 505 194 748 -114 113 -268 157 -421
120z"/>
</g>
</svg>
